<?xml version="1.0" encoding="UTF-8" standalone="no"?>
<!-- Created with Inkscape (http://www.inkscape.org/) -->

<svg viewBox="0 0 55.413895 8.9551208" version="1.1" id="svg1" sodipodi:docname="zsoft.svg" inkscape:version="1.3.2 (091e20e, 2023-11-25, custom)"
   xmlns:inkscape="http://www.inkscape.org/namespaces/inkscape"
   xmlns:sodipodi="http://sodipodi.sourceforge.net/DTD/sodipodi-0.dtd"
   xmlns="http://www.w3.org/2000/svg"
   xmlns:svg="http://www.w3.org/2000/svg">
   <sodipodi:namedview id="namedview1" pagecolor="#ffffff" bordercolor="#000000" borderopacity="0.25" inkscape:showpageshadow="2" inkscape:pageopacity="0.0" inkscape:pagecheckerboard="0" inkscape:deskcolor="#d1d1d1" inkscape:document-units="mm" showgrid="true" inkscape:lockguides="true" inkscape:zoom="2.8284271" inkscape:cx="117.91006" inkscape:cy="-18.208" inkscape:window-width="2560" inkscape:window-height="1377" inkscape:window-x="2552" inkscape:window-y="-8" inkscape:window-maximized="1" inkscape:current-layer="layer1">
      <inkscape:grid id="grid4" units="mm" originx="-5.0087125" originy="-5.0156922" spacingx="0.99999998" spacingy="1" empcolor="#0099e5" empopacity="0.30196078" color="#0099e5" opacity="0.14901961" empspacing="5" dotted="false" gridanglex="30" gridanglez="30" visible="true" />
   </sodipodi:namedview>
   <defs id="defs1">
      <rect x="86.018654" y="27.56399" width="251.40259" height="106.69165" id="rect4" />
   </defs>
   <g inkscape:label="Layer 1" inkscape:groupmode="layer" id="layer1" transform="translate(-5.0087125,-5.0156922)">
      <path d="m 12.542729,11.885847 q 0.85701,0 1.458197,0.601187 0.601186,0.601186 0.601186,1.445405 v 0.03837 H 5.0087125 V 11.873056 L 11.122906,7.1147298 H 7.0553044 q -0.8442191,0 -1.4454055,-0.6011864 Q 5.0087125,5.8995658 5.0087125,5.0553466 V 5.016973 h 9.4271145 l -0.03837,2.0593832 -6.0118638,4.8222818 z" id="text2" style="font-size:12.7912px;font-family:Warpen;-inkscape-font-specification:Warpen;fill:#ff2a2a;stroke-width:0.199863" aria-label="Z" />
      <path d="m 23.315329,10.54149 h -4.758326 q -1.138417,0 -1.957054,-0.8058451 -0.805845,-0.8186368 -0.805845,-1.9570535 0,-1.1384168 0.805845,-1.9442624 0.818637,-0.8186368 1.957054,-0.8186368 H 26.8457 q 0,0.8825928 -0.601186,1.4837792 -0.588395,0.6011864 -1.445406,0.6011864 h -6.242105 q -0.31978,0 -0.498857,0.2174504 -0.166286,0.2046592 -0.166286,0.4604832 0,0.255824 0.166286,0.4604832 0.179077,0.2046591 0.498857,0.2046591 h 5.525798 q 0.562813,0 1.074461,0.2302416 0.511648,0.2174504 0.882593,0.5883952 0.370944,0.3709448 0.588395,0.8825925 0.21745,0.498857 0.21745,1.06167 0,1.138417 -0.818637,1.957053 -0.805845,0.805846 -1.944262,0.805846 h -8.288697 q 0,-0.575604 0.268615,-1.06167 0.281406,-0.486065 0.754681,-0.75468 0.473274,-0.281407 1.023296,-0.281407 h 6.242105 q 0.31978,0 0.486066,-0.204659 0.179076,-0.204659 0.179076,-0.460483 0,-0.255824 -0.179076,-0.460483 -0.166286,-0.20466 -0.486066,-0.20466 z M 38.984545,7.8425474 v 3.2873386 q 0,1.227955 -0.85701,2.0338 -0.844219,0.805846 -2.072174,0.805846 h -5.257183 q -1.227956,0 -2.084966,-0.805846 -0.844219,-0.805845 -0.844219,-2.0338 V 7.8425474 q 0,-1.215164 0.844219,-2.0210096 0.85701,-0.8058456 2.084966,-0.8058456 h 5.257183 q 1.227955,0 2.072174,0.8058456 0.85701,0.8058456 0.85701,2.0210096 z M 36.886789,11.129886 V 7.8553386 q 0,-0.7546808 -0.831428,-0.7546808 h -5.257183 q -0.84422,0 -0.84422,0.7546808 v 3.2745474 q 0,0.741889 0.84422,0.741889 h 5.257183 q 0.831428,0 0.831428,-0.741889 z m 3.223388,2.839646 v -3.466415 q 0,-0.8570105 0.601186,-1.4581969 0.601187,-0.6011864 1.445406,-0.6011864 h 7.815423 q 0,0.8825928 -0.601186,1.4965704 -0.601187,0.6011859 -1.458197,0.6011859 h -5.346722 q -0.153494,0 -0.255824,0.10233 -0.102329,0.10233 -0.102329,0.255824 v 3.069888 z m 0,-6.8688742 q 0,-0.4349008 0.153494,-0.8186368 0.166286,-0.383736 0.434901,-0.6651424 0.281407,-0.2814064 0.665143,-0.4349008 0.383735,-0.1662856 0.793054,-0.1662856 h 7.815423 q 0,0.8825928 -0.601186,1.4837792 -0.601187,0.6011864 -1.458197,0.6011864 z M 60.422608,5.0156922 q 0,0.4349008 -0.166286,0.831428 -0.153494,0.383736 -0.4349,0.6651424 -0.268616,0.2686152 -0.652352,0.4349008 -0.370944,0.1534944 -0.793054,0.1534944 h -1.995427 v 6.8688742 q -0.869802,0 -1.483779,-0.601186 -0.601187,-0.601187 -0.601187,-1.445406 V 7.1006578 h -4.042019 q 0,-0.4349008 0.153495,-0.8186368 0.166285,-0.383736 0.4349,-0.6651424 0.281407,-0.2814064 0.665143,-0.4349008 0.383736,-0.1662856 0.793054,-0.1662856 z" id="text3" style="font-size:12.7912px;font-family:Warpen;-inkscape-font-specification:Warpen;stroke-width:0.199863" aria-label="Soft" />
   </g>
</svg>
